<svg id="Capa_1" data-name="Capa 1" xmlns="http://www.w3.org/2000/svg" viewBox="0 0 251 56.71"><defs><style>.cls-1{fill:#c1170c;}.cls-2{font-size:36px;font-family:pingwing, pingwing;}</style></defs><title>logo</title><path class="cls-1" d="M27.15,48.78a7.64,7.64,0,0,1-3-5.62l-.88,2.28a31.69,31.69,0,0,0-.91,8.16l-.2,1.31c-.34.76-1.05.8-2.14.14a23.78,23.78,0,0,1,2.87-12.71l-2,1a7.74,7.74,0,0,1-5.4-.55q3.21-.62,3.85-2.74l-3.53-.84a14,14,0,0,1-6.63-5.58C6.21,29.1,4,25.81,2.36,23.77c.18.24,2.82.92,7.94,2a16.09,16.09,0,0,1,7.23,4L16,28.34A17.14,17.14,0,0,1,13.2,23q-1.9-5.73,0-13.93a60.69,60.69,0,0,1,2.08-7.92,40,40,0,0,0,1.2,4.43,24.54,24.54,0,0,0,3.15,5.91,55.29,55.29,0,0,1,3.79,6,16.36,16.36,0,0,1,1.87,7.55A13.49,13.49,0,0,1,27.44,19q4.1-7,13.76-11.34L48.8,3.7l-2.29,3a28.64,28.64,0,0,0-3.17,10.65A14.26,14.26,0,0,1,42,21.24a19.71,19.71,0,0,1-8.19,8.63,19.29,19.29,0,0,1,4.51-1.3,22.34,22.34,0,0,1,11.42.88A24,24,0,0,0,62.36,30L51.11,36.32q-8.19,5-14.85,3.76,3.7,1.19,7.81,6.14a14.5,14.5,0,0,0,5.29,3.57l-4.82.09a33.64,33.64,0,0,1-7.9-.22,13.56,13.56,0,0,1-8.19-5.19c-.71,1.38-.32,3.16,1.19,5.35Z"/><text class="cls-2" transform="translate(69.36 39.83)">MS2World</text></svg>